<svg viewBox="0 0 100 110" xmlns="http://www.w3.org/2000/svg">
  <defs>
    <radialGradient id="hat" cx="50%" cy="30%" r="70%">
      <stop offset="0%" stop-color="#7c3aed"/>
      <stop offset="100%" stop-color="#4c1d95"/>
    </radialGradient>
    <radialGradient id="skin" cx="45%" cy="35%" r="65%">
      <stop offset="0%" stop-color="#6ee7b7"/>
      <stop offset="100%" stop-color="#34d399"/>
    </radialGradient>
  </defs>
  <!-- Hat -->
  <path d="M50 4 L68 44 L32 44 Z" fill="url(#hat)"/>
  <ellipse cx="50" cy="44" rx="20" ry="6" fill="#5b21b6"/>
  <polygon points="50,2 51.8,7.5 57.5,7.5 52.8,10.8 54.5,16.5 50,13 45.5,16.5 47.2,10.8 42.5,7.5 48.2,7.5" fill="#fbbf24"/>
  <!-- Ears -->
  <path d="M28 60 L18 50 L26 65 Z" fill="#34d399"/>
  <path d="M72 60 L82 50 L74 65 Z" fill="#34d399"/>
  <!-- Head -->
  <ellipse cx="50" cy="64" rx="22" ry="20" fill="url(#skin)"/>
  <!-- Eyes -->
  <circle cx="42" cy="60" r="6.5" fill="white"/>
  <circle cx="58" cy="60" r="6.5" fill="white"/>
  <circle cx="42.8" cy="61" r="3.5" fill="#0f0520"/>
  <circle cx="58.8" cy="61" r="3.5" fill="#0f0520"/>
  <circle cx="44.3" cy="59.2" r="1.4" fill="white" opacity="0.9"/>
  <circle cx="60.3" cy="59.2" r="1.4" fill="white" opacity="0.9"/>
  <!-- Smile -->
  <path d="M41 73 Q50 81 59 73" stroke="#15803d" stroke-width="2.2" fill="none" stroke-linecap="round"/>
  <!-- Body -->
  <path d="M25 82 Q22 110 50 110 Q78 110 75 82 Q68 77 50 79 Q32 77 25 82 Z" fill="#6d28d9"/>
  <path d="M33 80 Q50 87 67 80 Q60 75 50 77 Q40 75 33 80 Z" fill="#5b21b6"/>
  <!-- MX badge -->
  <rect x="43.5" y="88" width="13" height="9" rx="2.5" fill="#f59e0b"/>
  <text x="50" y="95.5" text-anchor="middle" fill="#1c1917" font-size="5.5" font-weight="bold" font-family="Arial,sans-serif">MX</text>
  <!-- Ambient sparkles -->
  <circle cx="88" cy="30" r="2" fill="#fbbf24" opacity="0.8"/>
  <circle cx="12" cy="35" r="1.5" fill="#fbbf24" opacity="0.6"/>
</svg>
